<svg id="nafhub-light" xmlns="http://www.w3.org/2000/svg" width="738.464" height="185.441" viewBox="0 0 738.464 185.441">
  <path id="Path_1" data-name="Path 1" d="M90.024,98.663c0-20.646-11.364-31.785-28.536-31.785s-29,11.138-29,31.785v71H0V41.126H32.487V57.132c8.354-10.9,22.277-17.862,38.746-17.862,29.928,0,51.277,19.492,51.277,54.99v75.411H90.024v-71h0Z" transform="translate(0 9.988)" fill="#001e81"/>
  <path id="Path_2" data-name="Path 2" d="M163.065,39.27c20.634,0,34.77,9.734,42.422,20.408V41.365h32.688V169.8H205.487V151.019c-7.651,11.126-22.252,20.86-42.66,20.86-32.462,0-58.427-26.667-58.427-66.768s25.965-65.84,58.653-65.84Zm8.341,28.511c-17.385,0-33.854,12.982-33.854,37.329s16.457,38.257,33.854,38.257,34.08-13.446,34.08-37.793S189.256,67.781,171.407,67.781Z" transform="translate(26.552 9.988)" fill="#001e81"/>
  <path id="Path_3" data-name="Path 3" d="M250.629,51.589V46.27c0-14.337,5.318-19.417,21.035-18.953h0l1.3.025V.073l-1.3-.038h-.577c-35.673-.753-53.3,13.81-53.3,45.081v134.54h32.826V78.168h22.427V51.589Z" transform="translate(55.392 0.002)" fill="#001e81"/>
  <path id="Path_4" data-name="Path 4" d="M90.024,98.663c0-20.646-11.364-31.785-28.536-31.785s-29,11.138-29,31.785v71H0V41.126H32.487V57.132c8.354-10.9,22.277-17.862,38.746-17.862,29.928,0,51.277,19.492,51.277,54.99v75.411H90.024v-71h0Z" transform="translate(0 9.988)" fill="#0c1a60"/>
  <path id="Path_5" data-name="Path 5" d="M163.065,39.27c20.634,0,34.77,9.734,42.422,20.408V41.365h32.688V169.8H205.487V151.019c-7.651,11.126-22.252,20.86-42.66,20.86-32.462,0-58.427-26.667-58.427-66.768s25.965-65.84,58.653-65.84Zm8.341,28.511c-17.385,0-33.854,12.982-33.854,37.329s16.457,38.257,33.854,38.257,34.08-13.446,34.08-37.793S189.256,67.781,171.407,67.781Z" transform="translate(26.552 9.988)" fill="#0c1a60"/>
  <path id="Path_6" data-name="Path 6" d="M250.629,51.589V46.27c0-14.337,5.318-19.417,21.035-18.953h0l1.3.025V.073l-1.3-.038h-.577c-35.673-.753-53.3,13.81-53.3,45.081v134.54h32.826V78.168h22.427V51.589Z" transform="translate(55.392 0.002)" fill="#0c1a60"/>
  <path id="Path_7" data-name="Path 7" d="M385.559,106v73.655h-28.9V111.209c0-22.741-9.006-33.792-27.533-33.792-19.367.339-29.64,11.427-29.64,32.061v70.18H270.9V0h27.295V53.033h.037V64.31c8.178-9.47,20.948-14.789,36.087-14.789h.652c19.317.226,33.391,7.225,41.845,20.822,7.225,11.628,8.743,25.814,8.743,35.661Z" transform="translate(68.899)" fill="#3c52cf"/>
  <path id="Path_8" data-name="Path 8" d="M461.625,39.82v72.94c0,20.132-10.21,30.944-29.514,31.271-18.64,0-27.319-10.5-27.319-33.039V39.82h-33v76.5c0,10.235,1.618,24.974,9.357,37.1,8.893,13.961,23.506,21.311,43.451,21.851l2.784.038v-.025c14.387-.138,26.843-4.716,35.548-12.982v9.408h31.359V39.82Z" transform="translate(94.559 10.128)" fill="#3c52cf"/>
  <path id="Path_9" data-name="Path 9" d="M556.575,49.346c-21.048,0-35.473,9.934-43.275,20.809V0H479.96V182.468H513.3V163.314c7.8,11.352,22.691,21.286,43.5,21.286,33.1,0,59.594-27.194,59.594-68.1s-26.479-67.157-59.819-67.157Zm-8.517,106.167c-18.213,0-34.758-13.722-34.758-38.546s16.545-38.546,34.758-38.546,34.519,13.233,34.519,38.069S565.794,155.512,548.058,155.512Z" transform="translate(122.07)" fill="#3c52cf"/>
</svg>
